<?xml version="1.0" encoding="UTF-8" standalone="no"?>
<svg
   style="overflow:visible"
   viewBox="-57.801056 0 1000 256"
   data-svgdocument=""
   id="_YodPmaxCuMPuGHw7sqt54"
   class="fl-svgdocument"
   version="1.1"
   sodipodi:docname="Untitled-3_sidetext.svg"
   width="1000"
   height="256"
   inkscape:version="1.2.1 (9c6d41e410, 2022-07-14, custom)"
   xmlns:inkscape="http://www.inkscape.org/namespaces/inkscape"
   xmlns:sodipodi="http://sodipodi.sourceforge.net/DTD/sodipodi-0.dtd"
   xmlns="http://www.w3.org/2000/svg"
   xmlns:svg="http://www.w3.org/2000/svg">
  <defs
     id="defs323" />
  <sodipodi:namedview
     id="namedview321"
     pagecolor="#ffffff"
     bordercolor="#666666"
     borderopacity="1.0"
     inkscape:showpageshadow="2"
     inkscape:pageopacity="0.0"
     inkscape:pagecheckerboard="0"
     inkscape:deskcolor="#d1d1d1"
     showgrid="false"
     inkscape:zoom="0.90106965"
     inkscape:cx="421.16611"
     inkscape:cy="307.41242"
     inkscape:window-width="1920"
     inkscape:window-height="1015"
     inkscape:window-x="0"
     inkscape:window-y="0"
     inkscape:window-maximized="1"
     inkscape:current-layer="g493" />
  <g
     id="g493"
     transform="matrix(0.98933758,0,0,0.99605133,-2.2942454,-7.3655291)">
    <g
       id="g20857"
       transform="matrix(1,0,0,0.93215293,189.08106,-213.47578)">
      <path
         id="path382"
         style="stroke-width:0.837696"
         d="m 383.34728,404.9646 v 0 h -38.86912 q -1.59162,0 -2.30366,-0.71204 -0.71204,-0.71204 -0.71204,-2.30367 v 0 -54.28272 q 0,-1.59162 0.71204,-2.30367 0.71204,-0.71204 2.30366,-0.71204 v 0 h 38.86912 q 1.59162,0 2.30366,0.71204 0.71204,0.71205 0.71204,2.30367 v 0 9.80105 q 0,1.59162 -0.71204,2.30366 -0.71204,0.71204 -2.30366,0.71204 v 0 h -23.12042 v 6.45026 h 16.33507 q 1.59163,0 2.30367,0.71205 0.71204,0.71204 0.71204,2.30366 v 0 8.96335 q 0,1.59163 -0.71204,2.30367 -0.71204,0.71204 -2.30367,0.71204 v 0 h -16.33507 v 7.20419 h 23.12042 q 1.59162,0 2.30366,0.71204 0.71204,0.71204 0.71204,2.30367 v 0 9.80104 q 0,1.59163 -0.71204,2.30367 -0.71204,0.71204 -2.30366,0.71204 z m 58.55497,0 v 0 h -42.63874 q -1.59163,0 -2.30367,-0.71204 -0.71204,-0.71204 -0.71204,-2.30367 v 0 -54.28272 q 0,-1.59162 0.71204,-2.30367 0.71204,-0.71204 2.30367,-0.71204 v 0 h 12.98429 q 1.59162,0 2.30367,0.71204 0.71204,0.71205 0.71204,2.30367 v 0 41.46597 h 11.47644 v -13.57068 q 0,-1.59163 0.71204,-2.30367 0.71204,-0.71204 2.30366,-0.71204 v 0 h 12.1466 q 1.59162,0 2.30367,0.71204 0.71204,0.71204 0.71204,2.30367 v 0 26.38743 q 0,1.59163 -0.71204,2.30367 -0.71205,0.71204 -2.30367,0.71204 z m 54.45027,0 v 0 H 457.4834 q -1.59162,0 -2.30366,-0.71204 -0.71204,-0.71204 -0.71204,-2.30367 v 0 -54.28272 q 0,-1.59162 0.71204,-2.30367 0.71204,-0.71204 2.30366,-0.71204 v 0 h 38.86912 q 1.59162,0 2.30366,0.71204 0.71204,0.71205 0.71204,2.30367 v 0 9.80105 q 0,1.59162 -0.71204,2.30366 -0.71204,0.71204 -2.30366,0.71204 v 0 H 473.2321 v 6.45026 h 16.33508 q 1.59162,0 2.30366,0.71205 0.71204,0.71204 0.71204,2.30366 v 0 8.96335 q 0,1.59163 -0.71204,2.30367 -0.71204,0.71204 -2.30366,0.71204 v 0 H 473.2321 v 7.20419 h 23.12042 q 1.59162,0 2.30366,0.71204 0.71204,0.71204 0.71204,2.30367 v 0 9.80104 q 0,1.59163 -0.71204,2.30367 -0.71204,0.71204 -2.30366,0.71204 z m 48.58639,0 v 0 H 523.1588 q -1.59162,0 -2.63874,-0.58639 -1.04712,-0.58638 -1.63351,-2.17801 v 0 l -8.20943,-20.52356 q -0.75392,-1.84293 -1.25654,-3.22513 -0.50262,-1.3822 -0.8377,-2.63874 -0.33508,-1.25655 -0.46073,-2.63875 -0.12565,-1.3822 -0.12565,-3.39267 v 0 -22.11518 q 0,-1.59162 0.71204,-2.30367 0.71204,-0.71204 2.30366,-0.71204 v 0 h 13.31937 q 1.59163,0 2.42932,0.71204 0.8377,0.71205 0.8377,2.30367 v 0 23.12042 q 0,0.83769 0.16754,1.67539 0.16754,0.8377 0.50262,1.75916 v 0 l 3.93717,11.72775 q 0.25131,0.8377 0.58639,1.13089 0.33508,0.2932 1.00523,0.2932 v 0 h 0.92147 q 0.67016,0 1.00524,-0.2932 0.33507,-0.29319 0.58638,-1.13089 v 0 l 3.93718,-11.81152 q 0.33507,-0.92146 0.50261,-1.75916 0.16754,-0.8377 0.16754,-1.67539 v 0 -23.03665 q 0,-1.59162 0.71204,-2.30367 0.71205,-0.71204 2.30367,-0.71204 v 0 h 13.15183 q 1.59163,0 2.30367,0.71204 0.71204,0.71205 0.71204,2.30367 v 0 22.11518 q 0,2.01047 -0.12566,3.39267 -0.12565,1.3822 -0.46073,2.63875 -0.33508,1.25654 -0.83769,2.63874 -0.50262,1.3822 -1.25655,3.22513 v 0 l -8.20942,20.52356 q -0.58639,1.59163 -1.63351,2.17801 -1.04712,0.58639 -2.63874,0.58639 z m 67.35078,0 v 0 h -38.86911 q -1.59162,0 -2.30366,-0.71204 -0.71205,-0.71204 -0.71205,-2.30367 v 0 -54.28272 q 0,-1.59162 0.71205,-2.30367 0.71204,-0.71204 2.30366,-0.71204 v 0 h 38.86911 q 1.59163,0 2.30367,0.71204 0.71204,0.71205 0.71204,2.30367 v 0 9.80105 q 0,1.59162 -0.71204,2.30366 -0.71204,0.71204 -2.30367,0.71204 v 0 h -23.12042 v 6.45026 h 16.33508 q 1.59163,0 2.30367,0.71205 0.71204,0.71204 0.71204,2.30366 v 0 8.96335 q 0,1.59163 -0.71204,2.30367 -0.71204,0.71204 -2.30367,0.71204 v 0 h -16.33508 v 7.20419 h 23.12042 q 1.59163,0 2.30367,0.71204 0.71204,0.71204 0.71204,2.30367 v 0 9.80104 q 0,1.59163 -0.71204,2.30367 -0.71204,0.71204 -2.30367,0.71204 z m 28.48168,0 v 0 h -12.56545 q -1.59162,0 -2.30366,-0.71204 -0.71204,-0.71204 -0.71204,-2.30367 v 0 -54.28272 q 0,-1.59162 0.71204,-2.30367 0.71204,-0.71204 2.30366,-0.71204 v 0 h 8.71205 q 1.59162,0 2.72251,0.50262 1.13089,0.50262 2.2199,1.75916 v 0 l 16.2513,18.59686 v -17.84293 q 0,-1.59162 0.71205,-2.30367 0.71204,-0.71204 2.30366,-0.71204 v 0 h 12.56545 q 1.59162,0 2.30366,0.71204 0.71204,0.71205 0.71204,2.30367 v 0 54.28272 q 0,1.59163 -0.71204,2.30367 -0.71204,0.71204 -2.30366,0.71204 v 0 h -12.56545 q -1.59162,0 -2.30366,-0.71204 -0.71205,-0.71204 -0.71205,-2.30367 v 0 -10.30366 l -14.3246,-17.34032 v 27.64398 q 0,1.59163 -0.71205,2.30367 -0.71204,0.71204 -2.30366,0.71204 z" />
      <path
         id="_j680GwHHsxer36p6m-UmU"
         style="stroke-width:0.837696"
         d="m 49.190187,404.9646 v 0 H 22.718981 q -1.591623,0 -2.303665,-0.71204 -0.712042,-0.71204 -0.712042,-2.30367 v 0 -9.80104 q 0,-1.59163 0.712042,-2.30367 0.712042,-0.71204 2.303665,-0.71204 v 0 h 22.534033 q 1.089005,0 1.633508,-0.71204 0.544502,-0.71205 0.544502,-1.71728 v 0 q 0,-1.42408 -0.544502,-2.09424 -0.544503,-0.67016 -1.633508,-0.75393 v 0 l -12.565446,-1.75916 q -5.863874,-0.8377 -9.424084,-3.8534 -3.56021,-3.01571 -3.56021,-10.05236 v 0 -8.79581 q 0,-7.12042 4.60733,-10.93194 4.607331,-3.81152 12.732985,-3.81152 v 0 h 23.455499 q 1.591623,0 2.303665,0.71204 0.712042,0.71205 0.712042,2.30367 v 0 9.96859 q 0,1.59162 -0.712042,2.30366 -0.712042,0.71204 -2.303665,0.71204 v 0 H 40.980762 q -1.089005,0 -1.675393,0.71204 -0.586387,0.71205 -0.586387,1.80105 v 0 q 0,1.08901 0.586387,1.84293 0.586388,0.75393 1.675393,0.8377 v 0 l 12.481676,1.67539 q 5.863875,0.8377 9.465969,3.85341 3.602095,3.0157 3.602095,10.05235 v 0 8.79581 q 0,7.12042 -4.649215,10.93194 -4.649215,3.81152 -12.6911,3.81152 z m 68.356023,0 v 0 H 78.677099 q -1.591623,0 -2.303665,-0.71204 -0.712042,-0.71204 -0.712042,-2.30367 v 0 -54.28272 q 0,-1.59162 0.712042,-2.30367 0.712042,-0.71204 2.303665,-0.71204 v 0 h 38.869111 q 1.59163,0 2.30367,0.71204 0.71204,0.71205 0.71204,2.30367 v 0 9.80105 q 0,1.59162 -0.71204,2.30366 -0.71204,0.71204 -2.30367,0.71204 v 0 H 94.425796 v 6.45026 h 16.335074 q 1.59163,0 2.30367,0.71205 0.71204,0.71204 0.71204,2.30366 v 0 8.96335 q 0,1.59163 -0.71204,2.30367 -0.71204,0.71204 -2.30367,0.71204 v 0 H 94.425796 v 7.20419 h 23.120414 q 1.59163,0 2.30367,0.71204 0.71204,0.71204 0.71204,2.30367 v 0 9.80104 q 0,1.59163 -0.71204,2.30367 -0.71204,0.71204 -2.30367,0.71204 z m 48.58639,0 v 0 h -21.7801 q -1.59162,0 -2.63874,-0.58639 -1.04713,-0.58638 -1.63351,-2.17801 v 0 l -8.20943,-20.52356 q -0.75392,-1.84293 -1.25654,-3.22513 -0.50262,-1.3822 -0.8377,-2.63874 -0.33508,-1.25655 -0.46073,-2.63875 -0.12566,-1.3822 -0.12566,-3.39267 v 0 -22.11518 q 0,-1.59162 0.71205,-2.30367 0.71204,-0.71204 2.30366,-0.71204 v 0 h 13.31937 q 1.59163,0 2.42932,0.71204 0.8377,0.71205 0.8377,2.30367 v 0 23.12042 q 0,0.83769 0.16754,1.67539 0.16754,0.8377 0.50262,1.75916 v 0 l 3.93717,11.72775 q 0.25131,0.8377 0.58639,1.13089 0.33508,0.2932 1.00523,0.2932 v 0 h 0.92147 q 0.67016,0 1.00523,-0.2932 0.33508,-0.29319 0.58639,-1.13089 v 0 l 3.93717,-11.81152 q 0.33508,-0.92146 0.50262,-1.75916 0.16754,-0.8377 0.16754,-1.67539 v 0 -23.03665 q 0,-1.59162 0.71204,-2.30367 0.71205,-0.71204 2.30367,-0.71204 v 0 h 13.15184 q 1.59162,0 2.30366,0.71204 0.71204,0.71205 0.71204,2.30367 v 0 22.11518 q 0,2.01047 -0.12565,3.39267 -0.12566,1.3822 -0.46074,2.63875 -0.33507,1.25654 -0.83769,2.63874 -0.50262,1.3822 -1.25655,3.22513 v 0 l -8.20942,20.52356 q -0.58639,1.59163 -1.63351,2.17801 -1.04712,0.58639 -2.63875,0.58639 z m 67.3508,0 v 0 h -38.86912 q -1.59162,0 -2.30366,-0.71204 -0.71204,-0.71204 -0.71204,-2.30367 v 0 -54.28272 q 0,-1.59162 0.71204,-2.30367 0.71204,-0.71204 2.30366,-0.71204 v 0 h 38.86912 q 1.59162,0 2.30366,0.71204 0.71204,0.71205 0.71204,2.30367 v 0 9.80105 q 0,1.59162 -0.71204,2.30366 -0.71204,0.71204 -2.30366,0.71204 v 0 h -23.12042 v 6.45026 h 16.33508 q 1.59162,0 2.30366,0.71205 0.71204,0.71204 0.71204,2.30366 v 0 8.96335 q 0,1.59163 -0.71204,2.30367 -0.71204,0.71204 -2.30366,0.71204 v 0 h -16.33508 v 7.20419 h 23.12042 q 1.59162,0 2.30366,0.71204 0.71204,0.71204 0.71204,2.30367 v 0 9.80104 q 0,1.59163 -0.71204,2.30367 -0.71204,0.71204 -2.30366,0.71204 z m 28.48167,0 v 0 h -12.56544 q -1.59163,0 -2.30367,-0.71204 -0.71204,-0.71204 -0.71204,-2.30367 v 0 -54.28272 q 0,-1.59162 0.71204,-2.30367 0.71204,-0.71204 2.30367,-0.71204 v 0 h 8.71204 q 1.59162,0 2.72251,0.50262 1.13089,0.50262 2.2199,1.75916 v 0 l 16.25131,18.59686 v -17.84293 q 0,-1.59162 0.71204,-2.30367 0.71204,-0.71204 2.30366,-0.71204 v 0 h 12.56545 q 1.59162,0 2.30367,0.71204 0.71204,0.71205 0.71204,2.30367 v 0 54.28272 q 0,1.59163 -0.71204,2.30367 -0.71205,0.71204 -2.30367,0.71204 v 0 h -12.56545 q -1.59162,0 -2.30366,-0.71204 -0.71204,-0.71204 -0.71204,-2.30367 v 0 -10.30366 l -14.32461,-17.34032 v 27.64398 q 0,1.59163 -0.71204,2.30367 -0.71204,0.71204 -2.30367,0.71204 z" />
    </g>
    <g
       id="_36D3Fpvw8BhKXlW5C9wVS"
       transform="matrix(0.84704954,0,0,0.84134012,-143.01195,6.5096639)">
      <path
         data-type="circle"
         data-cx="50"
         data-cy="50"
         data-r="50"
         d="m 349.50433,223.27967 m -85.87445,0 a 85.874445,85.874445 0 1 0 171.74889,0 85.874445,85.874445 0 1 0 -171.74889,0"
         fill="#ffffff"
         id="path312"
         style="overflow:visible;stroke-width:1.71749"
         transform="matrix(1.2307691,0,0,1.2307691,-174.8182,-117.97226)" />
      <path
         id="_DM-25yiJOpjY_yesepP-5"
         d="M 19,6 H 5 C 4.4,6 4,6.4 4,7 v 10 c 0,0.6 0.4,1 1,1 h 14 c 0.6,0 1,-0.4 1,-1 V 7 C 20,6.4 19.6,6 19,6 Z M 18,16 H 6 V 8 h 12 z"
         stroke="none"
         fill="#1d2936"
         transform="matrix(8.4171753,0,0,8.4171753,154.33484,45.881191)"
         stroke-width="1" />
      <path
         id="_rO_PbUmBbAggpYK0ds17q"
         d="M 456.26,294.24 H 44.338 C 19.952,294.24 0,274.286 0,249.9 0,225.514 19.952,205.562 44.338,205.562 H 456.26 c 24.388,0 44.34,19.953 44.34,44.338 0,24.386 -19.954,44.34 -44.34,44.34"
         stroke="none"
         fill="#1d2936"
         transform="matrix(0.1325445,0,0,0.15676253,222.21922,175.28709)"
         stroke-width="1" />
      <path
         id="_PwCsJ5XFgxHZ2ZBYDqqYB"
         d="m 972,-229 c 8,-0.2 12,9.4 6.3,15 l -40.8,40.8 c -2.5,2.5 -6.7,2.5 -9.2,0 L 907.6,-194 c -8.6,-8.2 4.1,-20.9 12.3,-12.3 l 11.5,11.5 c 0.8,0.8 2.2,0.8 3.1,0 l 31.5,-31.5 c 1.6,-1.7 3.7,-2.6 6,-2.7 z"
         stroke="none"
         fill="#1c9954"
         transform="matrix(0.79046696,0,0,0.79046696,-489.85443,306.41656)"
         stroke-width="1" />
      <path
         id="_0jdQD07NULSEAxiaxZPOE"
         d="m 349.50434,123.85459 c -53.54719,0 -96.95498,43.40779 -96.95498,96.95497 0,53.54609 43.40779,96.95498 96.95498,96.95498 53.54608,0 96.95497,-43.40889 96.95497,-96.95498 -0.001,-53.54718 -43.40999,-96.95497 -96.95497,-96.95497 z m 0,179.32284 c -45.49057,0 -82.36787,-36.8784 -82.36787,-82.36787 0,-45.49056 36.8762,-82.36787 82.36787,-82.36787 45.48946,0 82.36786,36.87621 82.36786,82.36787 -0.001,45.48947 -36.87949,82.36787 -82.36786,82.36787 z"
         stroke="none"
         fill="#1c9954"
         stroke-width="1.09793"
         style="overflow:visible"
         transform="matrix(1.2307691,0,0,1.2307691,-174.8182,-117.97226)" />
    </g>
  </g>
</svg>
